<svg width="180" height="180" viewBox="0 0 180 180" fill="none" xmlns="http://www.w3.org/2000/svg">
<path d="M105.315 156.185L92.9082 131.992L125.078 108L140.76 137.97C143.19 142.614 144.405 144.935 144.244 146.696C144.05 148.822 142.74 150.685 140.806 151.588C139.203 152.335 136.607 151.978 131.415 151.265L131.415 151.265C129.314 150.976 128.263 150.831 127.308 151.009C126.15 151.225 125.082 151.777 124.236 152.595C123.538 153.271 123.04 154.224 122.045 156.132C119.398 161.204 118.075 163.74 116.373 164.611C114.644 165.496 112.592 165.489 110.869 164.592C109.173 163.709 107.887 161.201 105.315 156.185Z" fill="#E5E7EB" stroke="#6B7280" stroke-width="5.68421"/>
<path d="M73.8002 156.185L86.207 131.992L54.0371 108L38.355 137.97C35.9253 142.614 34.7104 144.935 34.8713 146.696C35.0655 148.822 36.3749 150.685 38.3096 151.588C39.912 152.335 42.5079 151.978 47.6998 151.265L47.6998 151.265C49.8017 150.976 50.8526 150.831 51.8077 151.009C52.9649 151.225 54.0329 151.777 54.879 152.595C55.5773 153.271 56.075 154.224 57.0702 156.132C59.7168 161.204 61.0401 163.74 62.7418 164.611C64.4716 165.496 66.5229 165.489 68.2464 164.592C69.9419 163.709 71.228 161.201 73.8002 156.185Z" fill="#E5E7EB" stroke="#6B7280" stroke-width="5.68421"/>
<rect x="35" y="15" width="110" height="114.583" rx="55" fill="#E5E7EB" stroke="#6B7280" stroke-width="5.68421"/>
<rect x="43.4023" y="23.4028" width="93.1944" height="97.7778" rx="46.5972" fill="white" stroke="#6B7280" stroke-width="5.68421"/>
<path d="M76 83.5C76 89.5751 80.0294 94.5 85 94.5H94C98.9706 94.5 103 89.5751 103 83.5C103 77.4249 98.9706 72.5 94 72.5H85C80.0294 72.5 76 67.5751 76 61.5C76 55.4249 80.0294 50.5 85 50.5H94C98.9706 50.5 103 55.4249 103 61.5M89.5 45V100" stroke="#6B7280" stroke-width="6" stroke-linecap="round" stroke-linejoin="round"/>
</svg>